<?xml version="1.0" standalone="no"?>
<svg
  width="600"
  height="600"
  viewBox="0 0 600 600"
  xmlns="http://www.w3.org/2000/svg"
>
  <g transform="translate(300,300)">
    <path d="M152.2,-195.3C178.5,-159.4,168,-93.6,178.7,-31.7C189.3,30.1,221.1,88.1,210.8,136.6C200.5,185,148.1,224.1,102.8,208.5C57.5,193,19.2,122.8,-6.8,84.7C-32.7,46.6,-46.2,40.5,-81.9,24.9C-117.6,9.3,-175.5,-15.9,-172.4,-29.9C-169.3,-43.8,-105.2,-46.4,-66.3,-80C-27.4,-113.7,-13.7,-178.3,24.6,-207.7C63,-237.1,126,-231.1,152.2,-195.3Z" fill="#0072bb" />
  </g>
</svg>
    