<svg xmlns="http://www.w3.org/2000/svg" width="51.7" height="51.7" viewBox="0 0 51.7 51.7">
    <title>logo</title>
    <rect width="51.7" height="51.7" fill="#48484a"></rect>
    <path d="M11.7,15.8a.3.3,0,0,1,.3-.3h1.8a.3.3,0,0,1,.3.3V33.7a.2.2,0,0,0,.2.2h5.4a.3.3,0,0,1,.3.3v1.7a.3.3,0,0,1-.3.3H12a.3.3,0,0,1-.3-.3Z" fill="#fff"></path>
    <path d="M22.6,15.8a.3.3,0,0,1,.3-.3h1.8a.3.3,0,0,1,.3.3V33.7a.2.2,0,0,0,.2.2h5.4a.3.3,0,0,1,.3.3v1.7a.3.3,0,0,1-.3.3H22.9a.3.3,0,0,1-.3-.3Z" fill="#fff"></path>
    <path d="M33.9,36.1a.3.3,0,0,1-.3-.3V18a.2.2,0,0,0-.2-.2H30a.3.3,0,0,1-.3-.3V15.8a.3.3,0,0,1,.3-.3h9.6a.3.3,0,0,1,.3.3v1.7a.3.3,0,0,1-.3.3H36.3a.2.2,0,0,0-.2.2V35.8a.3.3,0,0,1-.3.3Z" fill="#fff"></path>
</svg>